<?xml version="1.0" encoding="utf-8" standalone="no"?>
<!DOCTYPE svg PUBLIC "-//W3C//DTD SVG 1.1//EN"
  "http://www.w3.org/Graphics/SVG/1.1/DTD/svg11.dtd">
<!-- Created with matplotlib (https://matplotlib.org/) -->
<svg height="432pt" version="1.1" viewBox="0 0 720 432" width="720pt" xmlns="http://www.w3.org/2000/svg" xmlns:xlink="http://www.w3.org/1999/xlink">
 <metadata>
  <rdf:RDF xmlns:cc="http://creativecommons.org/ns#" xmlns:dc="http://purl.org/dc/elements/1.1/" xmlns:rdf="http://www.w3.org/1999/02/22-rdf-syntax-ns#">
   <cc:Work>
    <dc:type rdf:resource="http://purl.org/dc/dcmitype/StillImage"/>
    <dc:date>2021-03-06T22:35:00.704661</dc:date>
    <dc:format>image/svg+xml</dc:format>
    <dc:creator>
     <cc:Agent>
      <dc:title>Matplotlib v3.3.4, https://matplotlib.org/</dc:title>
     </cc:Agent>
    </dc:creator>
   </cc:Work>
  </rdf:RDF>
 </metadata>
 <defs>
  <style type="text/css">*{stroke-linecap:butt;stroke-linejoin:round;}</style>
 </defs>
 <g id="figure_1">
  <g id="patch_1">
   <path d="M 0 432 
L 720 432 
L 720 0 
L 0 0 
z
" style="fill:#ffffff;"/>
  </g>
  <g id="axes_1">
   <g id="patch_2">
    <path d="M 55.55 200.35 
L 375.225 200.35 
L 375.225 10.8 
L 55.55 10.8 
z
" style="fill:#e5e5e5;"/>
   </g>
   <g id="matplotlib.axis_1">
    <g id="xtick_1">
     <g id="line2d_1">
      <path clip-path="url(#p68aaa751f4)" d="M 83.919426 200.35 
L 83.919426 10.8 
" style="fill:none;stroke:#ffffff;stroke-linecap:square;stroke-width:0.8;"/>
     </g>
     <g id="line2d_2">
      <defs>
       <path d="M 0 0 
L 0 3.5 
" id="mbb55b49028" style="stroke:#555555;stroke-width:0.8;"/>
      </defs>
      <g>
       <use style="fill:#555555;stroke:#555555;stroke-width:0.8;" x="83.919426" xlink:href="#mbb55b49028" y="200.35"/>
      </g>
     </g>
    </g>
    <g id="xtick_2">
     <g id="line2d_3">
      <path clip-path="url(#p68aaa751f4)" d="M 153.113149 200.35 
L 153.113149 10.8 
" style="fill:none;stroke:#ffffff;stroke-linecap:square;stroke-width:0.8;"/>
     </g>
     <g id="line2d_4">
      <g>
       <use style="fill:#555555;stroke:#555555;stroke-width:0.8;" x="153.113149" xlink:href="#mbb55b49028" y="200.35"/>
      </g>
     </g>
    </g>
    <g id="xtick_3">
     <g id="line2d_5">
      <path clip-path="url(#p68aaa751f4)" d="M 222.306872 200.35 
L 222.306872 10.8 
" style="fill:none;stroke:#ffffff;stroke-linecap:square;stroke-width:0.8;"/>
     </g>
     <g id="line2d_6">
      <g>
       <use style="fill:#555555;stroke:#555555;stroke-width:0.8;" x="222.306872" xlink:href="#mbb55b49028" y="200.35"/>
      </g>
     </g>
    </g>
    <g id="xtick_4">
     <g id="line2d_7">
      <path clip-path="url(#p68aaa751f4)" d="M 291.500595 200.35 
L 291.500595 10.8 
" style="fill:none;stroke:#ffffff;stroke-linecap:square;stroke-width:0.8;"/>
     </g>
     <g id="line2d_8">
      <g>
       <use style="fill:#555555;stroke:#555555;stroke-width:0.8;" x="291.500595" xlink:href="#mbb55b49028" y="200.35"/>
      </g>
     </g>
    </g>
    <g id="xtick_5">
     <g id="line2d_9">
      <path clip-path="url(#p68aaa751f4)" d="M 360.694318 200.35 
L 360.694318 10.8 
" style="fill:none;stroke:#ffffff;stroke-linecap:square;stroke-width:0.8;"/>
     </g>
     <g id="line2d_10">
      <g>
       <use style="fill:#555555;stroke:#555555;stroke-width:0.8;" x="360.694318" xlink:href="#mbb55b49028" y="200.35"/>
      </g>
     </g>
    </g>
   </g>
   <g id="matplotlib.axis_2">
    <g id="ytick_1">
     <g id="line2d_11">
      <path clip-path="url(#p68aaa751f4)" d="M 55.55 179.441108 
L 375.225 179.441108 
" style="fill:none;stroke:#ffffff;stroke-linecap:square;stroke-width:0.8;"/>
     </g>
     <g id="line2d_12">
      <defs>
       <path d="M 0 0 
L -3.5 0 
" id="m1649e55265" style="stroke:#555555;stroke-width:0.8;"/>
      </defs>
      <g>
       <use style="fill:#555555;stroke:#555555;stroke-width:0.8;" x="55.55" xlink:href="#m1649e55265" y="179.441108"/>
      </g>
     </g>
     <g id="text_1">
      <!-- 20000 -->
      <g style="fill:#555555;" transform="translate(16.7375 183.240326)scale(0.1 -0.1)">
       <defs>
        <path d="M 19.1875 8.296875 
L 53.609375 8.296875 
L 53.609375 0 
L 7.328125 0 
L 7.328125 8.296875 
Q 12.9375 14.109375 22.625 23.890625 
Q 32.328125 33.6875 34.8125 36.53125 
Q 39.546875 41.84375 41.421875 45.53125 
Q 43.3125 49.21875 43.3125 52.78125 
Q 43.3125 58.59375 39.234375 62.25 
Q 35.15625 65.921875 28.609375 65.921875 
Q 23.96875 65.921875 18.8125 64.3125 
Q 13.671875 62.703125 7.8125 59.421875 
L 7.8125 69.390625 
Q 13.765625 71.78125 18.9375 73 
Q 24.125 74.21875 28.421875 74.21875 
Q 39.75 74.21875 46.484375 68.546875 
Q 53.21875 62.890625 53.21875 53.421875 
Q 53.21875 48.921875 51.53125 44.890625 
Q 49.859375 40.875 45.40625 35.40625 
Q 44.1875 33.984375 37.640625 27.21875 
Q 31.109375 20.453125 19.1875 8.296875 
z
" id="DejaVuSans-50"/>
        <path d="M 31.78125 66.40625 
Q 24.171875 66.40625 20.328125 58.90625 
Q 16.5 51.421875 16.5 36.375 
Q 16.5 21.390625 20.328125 13.890625 
Q 24.171875 6.390625 31.78125 6.390625 
Q 39.453125 6.390625 43.28125 13.890625 
Q 47.125 21.390625 47.125 36.375 
Q 47.125 51.421875 43.28125 58.90625 
Q 39.453125 66.40625 31.78125 66.40625 
z
M 31.78125 74.21875 
Q 44.046875 74.21875 50.515625 64.515625 
Q 56.984375 54.828125 56.984375 36.375 
Q 56.984375 17.96875 50.515625 8.265625 
Q 44.046875 -1.421875 31.78125 -1.421875 
Q 19.53125 -1.421875 13.0625 8.265625 
Q 6.59375 17.96875 6.59375 36.375 
Q 6.59375 54.828125 13.0625 64.515625 
Q 19.53125 74.21875 31.78125 74.21875 
z
" id="DejaVuSans-48"/>
       </defs>
       <use xlink:href="#DejaVuSans-50"/>
       <use x="63.623047" xlink:href="#DejaVuSans-48"/>
       <use x="127.246094" xlink:href="#DejaVuSans-48"/>
       <use x="190.869141" xlink:href="#DejaVuSans-48"/>
       <use x="254.492188" xlink:href="#DejaVuSans-48"/>
      </g>
     </g>
    </g>
    <g id="ytick_2">
     <g id="line2d_13">
      <path clip-path="url(#p68aaa751f4)" d="M 55.55 148.960117 
L 375.225 148.960117 
" style="fill:none;stroke:#ffffff;stroke-linecap:square;stroke-width:0.8;"/>
     </g>
     <g id="line2d_14">
      <g>
       <use style="fill:#555555;stroke:#555555;stroke-width:0.8;" x="55.55" xlink:href="#m1649e55265" y="148.960117"/>
      </g>
     </g>
     <g id="text_2">
      <!-- 40000 -->
      <g style="fill:#555555;" transform="translate(16.7375 152.759336)scale(0.1 -0.1)">
       <defs>
        <path d="M 37.796875 64.3125 
L 12.890625 25.390625 
L 37.796875 25.390625 
z
M 35.203125 72.90625 
L 47.609375 72.90625 
L 47.609375 25.390625 
L 58.015625 25.390625 
L 58.015625 17.1875 
L 47.609375 17.1875 
L 47.609375 0 
L 37.796875 0 
L 37.796875 17.1875 
L 4.890625 17.1875 
L 4.890625 26.703125 
z
" id="DejaVuSans-52"/>
       </defs>
       <use xlink:href="#DejaVuSans-52"/>
       <use x="63.623047" xlink:href="#DejaVuSans-48"/>
       <use x="127.246094" xlink:href="#DejaVuSans-48"/>
       <use x="190.869141" xlink:href="#DejaVuSans-48"/>
       <use x="254.492188" xlink:href="#DejaVuSans-48"/>
      </g>
     </g>
    </g>
    <g id="ytick_3">
     <g id="line2d_15">
      <path clip-path="url(#p68aaa751f4)" d="M 55.55 118.479127 
L 375.225 118.479127 
" style="fill:none;stroke:#ffffff;stroke-linecap:square;stroke-width:0.8;"/>
     </g>
     <g id="line2d_16">
      <g>
       <use style="fill:#555555;stroke:#555555;stroke-width:0.8;" x="55.55" xlink:href="#m1649e55265" y="118.479127"/>
      </g>
     </g>
     <g id="text_3">
      <!-- 60000 -->
      <g style="fill:#555555;" transform="translate(16.7375 122.278346)scale(0.1 -0.1)">
       <defs>
        <path d="M 33.015625 40.375 
Q 26.375 40.375 22.484375 35.828125 
Q 18.609375 31.296875 18.609375 23.390625 
Q 18.609375 15.53125 22.484375 10.953125 
Q 26.375 6.390625 33.015625 6.390625 
Q 39.65625 6.390625 43.53125 10.953125 
Q 47.40625 15.53125 47.40625 23.390625 
Q 47.40625 31.296875 43.53125 35.828125 
Q 39.65625 40.375 33.015625 40.375 
z
M 52.59375 71.296875 
L 52.59375 62.3125 
Q 48.875 64.0625 45.09375 64.984375 
Q 41.3125 65.921875 37.59375 65.921875 
Q 27.828125 65.921875 22.671875 59.328125 
Q 17.53125 52.734375 16.796875 39.40625 
Q 19.671875 43.65625 24.015625 45.921875 
Q 28.375 48.1875 33.59375 48.1875 
Q 44.578125 48.1875 50.953125 41.515625 
Q 57.328125 34.859375 57.328125 23.390625 
Q 57.328125 12.15625 50.6875 5.359375 
Q 44.046875 -1.421875 33.015625 -1.421875 
Q 20.359375 -1.421875 13.671875 8.265625 
Q 6.984375 17.96875 6.984375 36.375 
Q 6.984375 53.65625 15.1875 63.9375 
Q 23.390625 74.21875 37.203125 74.21875 
Q 40.921875 74.21875 44.703125 73.484375 
Q 48.484375 72.75 52.59375 71.296875 
z
" id="DejaVuSans-54"/>
       </defs>
       <use xlink:href="#DejaVuSans-54"/>
       <use x="63.623047" xlink:href="#DejaVuSans-48"/>
       <use x="127.246094" xlink:href="#DejaVuSans-48"/>
       <use x="190.869141" xlink:href="#DejaVuSans-48"/>
       <use x="254.492188" xlink:href="#DejaVuSans-48"/>
      </g>
     </g>
    </g>
    <g id="ytick_4">
     <g id="line2d_17">
      <path clip-path="url(#p68aaa751f4)" d="M 55.55 87.998137 
L 375.225 87.998137 
" style="fill:none;stroke:#ffffff;stroke-linecap:square;stroke-width:0.8;"/>
     </g>
     <g id="line2d_18">
      <g>
       <use style="fill:#555555;stroke:#555555;stroke-width:0.8;" x="55.55" xlink:href="#m1649e55265" y="87.998137"/>
      </g>
     </g>
     <g id="text_4">
      <!-- 80000 -->
      <g style="fill:#555555;" transform="translate(16.7375 91.797356)scale(0.1 -0.1)">
       <defs>
        <path d="M 31.78125 34.625 
Q 24.75 34.625 20.71875 30.859375 
Q 16.703125 27.09375 16.703125 20.515625 
Q 16.703125 13.921875 20.71875 10.15625 
Q 24.75 6.390625 31.78125 6.390625 
Q 38.8125 6.390625 42.859375 10.171875 
Q 46.921875 13.96875 46.921875 20.515625 
Q 46.921875 27.09375 42.890625 30.859375 
Q 38.875 34.625 31.78125 34.625 
z
M 21.921875 38.8125 
Q 15.578125 40.375 12.03125 44.71875 
Q 8.5 49.078125 8.5 55.328125 
Q 8.5 64.0625 14.71875 69.140625 
Q 20.953125 74.21875 31.78125 74.21875 
Q 42.671875 74.21875 48.875 69.140625 
Q 55.078125 64.0625 55.078125 55.328125 
Q 55.078125 49.078125 51.53125 44.71875 
Q 48 40.375 41.703125 38.8125 
Q 48.828125 37.15625 52.796875 32.3125 
Q 56.78125 27.484375 56.78125 20.515625 
Q 56.78125 9.90625 50.3125 4.234375 
Q 43.84375 -1.421875 31.78125 -1.421875 
Q 19.734375 -1.421875 13.25 4.234375 
Q 6.78125 9.90625 6.78125 20.515625 
Q 6.78125 27.484375 10.78125 32.3125 
Q 14.796875 37.15625 21.921875 38.8125 
z
M 18.3125 54.390625 
Q 18.3125 48.734375 21.84375 45.5625 
Q 25.390625 42.390625 31.78125 42.390625 
Q 38.140625 42.390625 41.71875 45.5625 
Q 45.3125 48.734375 45.3125 54.390625 
Q 45.3125 60.0625 41.71875 63.234375 
Q 38.140625 66.40625 31.78125 66.40625 
Q 25.390625 66.40625 21.84375 63.234375 
Q 18.3125 60.0625 18.3125 54.390625 
z
" id="DejaVuSans-56"/>
       </defs>
       <use xlink:href="#DejaVuSans-56"/>
       <use x="63.623047" xlink:href="#DejaVuSans-48"/>
       <use x="127.246094" xlink:href="#DejaVuSans-48"/>
       <use x="190.869141" xlink:href="#DejaVuSans-48"/>
       <use x="254.492188" xlink:href="#DejaVuSans-48"/>
      </g>
     </g>
    </g>
    <g id="ytick_5">
     <g id="line2d_19">
      <path clip-path="url(#p68aaa751f4)" d="M 55.55 57.517147 
L 375.225 57.517147 
" style="fill:none;stroke:#ffffff;stroke-linecap:square;stroke-width:0.8;"/>
     </g>
     <g id="line2d_20">
      <g>
       <use style="fill:#555555;stroke:#555555;stroke-width:0.8;" x="55.55" xlink:href="#m1649e55265" y="57.517147"/>
      </g>
     </g>
     <g id="text_5">
      <!-- 100000 -->
      <g style="fill:#555555;" transform="translate(10.375 61.316366)scale(0.1 -0.1)">
       <defs>
        <path d="M 12.40625 8.296875 
L 28.515625 8.296875 
L 28.515625 63.921875 
L 10.984375 60.40625 
L 10.984375 69.390625 
L 28.421875 72.90625 
L 38.28125 72.90625 
L 38.28125 8.296875 
L 54.390625 8.296875 
L 54.390625 0 
L 12.40625 0 
z
" id="DejaVuSans-49"/>
       </defs>
       <use xlink:href="#DejaVuSans-49"/>
       <use x="63.623047" xlink:href="#DejaVuSans-48"/>
       <use x="127.246094" xlink:href="#DejaVuSans-48"/>
       <use x="190.869141" xlink:href="#DejaVuSans-48"/>
       <use x="254.492188" xlink:href="#DejaVuSans-48"/>
       <use x="318.115234" xlink:href="#DejaVuSans-48"/>
      </g>
     </g>
    </g>
    <g id="ytick_6">
     <g id="line2d_21">
      <path clip-path="url(#p68aaa751f4)" d="M 55.55 27.036157 
L 375.225 27.036157 
" style="fill:none;stroke:#ffffff;stroke-linecap:square;stroke-width:0.8;"/>
     </g>
     <g id="line2d_22">
      <g>
       <use style="fill:#555555;stroke:#555555;stroke-width:0.8;" x="55.55" xlink:href="#m1649e55265" y="27.036157"/>
      </g>
     </g>
     <g id="text_6">
      <!-- 120000 -->
      <g style="fill:#555555;" transform="translate(10.375 30.835375)scale(0.1 -0.1)">
       <use xlink:href="#DejaVuSans-49"/>
       <use x="63.623047" xlink:href="#DejaVuSans-50"/>
       <use x="127.246094" xlink:href="#DejaVuSans-48"/>
       <use x="190.869141" xlink:href="#DejaVuSans-48"/>
       <use x="254.492188" xlink:href="#DejaVuSans-48"/>
       <use x="318.115234" xlink:href="#DejaVuSans-48"/>
      </g>
     </g>
    </g>
   </g>
   <g id="line2d_23">
    <path clip-path="url(#p68aaa751f4)" d="M 70.080682 189.822933 
L 77.000054 187.061355 
L 83.919426 188.176959 
L 90.838799 176.307662 
L 97.758171 175.210346 
L 104.677543 168.553298 
L 111.596916 163.713679 
L 118.516288 158.690411 
L 125.43566 151.764368 
L 132.355032 144.023721 
L 139.274405 137.897042 
L 146.193777 135.786233 
L 153.113149 127.548746 
L 160.032522 122.606253 
L 166.951894 119.481952 
L 173.871266 116.016263 
L 180.790639 109.426273 
L 187.710011 106.183096 
L 194.629383 100.190533 
L 201.548755 97.235401 
L 208.468128 95.024005 
L 215.3875 91.302276 
L 222.306872 91.046236 
L 229.226245 86.361308 
L 236.145617 86.361308 
L 243.064989 87.998137 
L 249.984361 76.488515 
L 256.903734 87.192677 
L 263.823106 70.710081 
L 270.742478 80.013642 
L 277.661851 86.361308 
L 284.581223 60.653641 
L 291.500595 65.137394 
L 298.419968 76.927441 
L 305.33934 60.565246 
L 312.258712 49.223269 
L 319.178084 77.06613 
L 326.097457 61.650369 
L 333.016829 45.250072 
L 339.936201 75.15802 
L 346.855574 47.536147 
L 353.774946 35.418429 
L 360.694318 61.650369 
" style="fill:none;stroke:#e24a33;stroke-linecap:square;stroke-width:1.5;"/>
   </g>
   <g id="line2d_24">
    <path clip-path="url(#p68aaa751f4)" d="M 70.080682 178.15481 
L 77.000054 187.061355 
L 83.919426 186.851036 
L 90.838799 175.448098 
L 97.758171 167.117643 
L 104.677543 166.431821 
L 111.596916 155.30626 
L 118.516288 150.822506 
L 125.43566 140.050524 
L 132.355032 134.999824 
L 139.274405 127.446635 
L 146.193777 122.813524 
L 153.113149 116.010167 
L 160.032522 111.072247 
L 166.951894 107.778776 
L 173.871266 110.24164 
L 180.790639 99.541288 
L 187.710011 91.925613 
L 194.629383 84.790013 
L 201.548755 83.574583 
L 208.468128 81.420339 
L 215.3875 78.756301 
L 222.306872 73.332971 
L 229.226245 69.328531 
L 236.145617 80.377889 
L 243.064989 86.361308 
L 249.984361 54.469048 
L 256.903734 94.598795 
L 263.823106 66.255285 
L 270.742478 45.175394 
L 277.661851 78.421772 
L 284.581223 41.886495 
L 291.500595 57.517147 
L 298.419968 37.881293 
L 305.33934 55.050473 
L 312.258712 49.896899 
L 319.178084 82.756169 
L 326.097457 62.381913 
L 333.016829 20.939959 
L 339.936201 30.084256 
L 346.855574 23.104109 
L 353.774946 19.415909 
L 360.694318 49.896899 
" style="fill:none;stroke:#348abd;stroke-linecap:square;stroke-width:1.5;"/>
   </g>
   <g id="patch_3">
    <path d="M 55.55 200.35 
L 55.55 10.8 
" style="fill:none;stroke:#ffffff;stroke-linecap:square;stroke-linejoin:miter;"/>
   </g>
   <g id="patch_4">
    <path d="M 375.225 200.35 
L 375.225 10.8 
" style="fill:none;stroke:#ffffff;stroke-linecap:square;stroke-linejoin:miter;"/>
   </g>
   <g id="patch_5">
    <path d="M 55.55 200.35 
L 375.225 200.35 
" style="fill:none;stroke:#ffffff;stroke-linecap:square;stroke-linejoin:miter;"/>
   </g>
   <g id="patch_6">
    <path d="M 55.55 10.8 
L 375.225 10.8 
" style="fill:none;stroke:#ffffff;stroke-linecap:square;stroke-linejoin:miter;"/>
   </g>
   <g id="legend_1">
    <g id="patch_7">
     <path d="M 59.75 33.21375 
L 103.28375 33.21375 
Q 104.48375 33.21375 104.48375 32.01375 
L 104.48375 15 
Q 104.48375 13.8 103.28375 13.8 
L 59.75 13.8 
Q 58.55 13.8 58.55 15 
L 58.55 32.01375 
Q 58.55 33.21375 59.75 33.21375 
z
" style="fill:#e5e5e5;opacity:0.8;stroke:#cccccc;stroke-linejoin:miter;stroke-width:0.5;"/>
    </g>
    <g id="line2d_25">
     <path d="M 60.95 18.659063 
L 72.95 18.659063 
" style="fill:none;stroke:#e24a33;stroke-linecap:square;stroke-width:1.5;"/>
    </g>
    <g id="line2d_26"/>
    <g id="text_7">
     <!-- All Devs -->
     <g transform="translate(77.75 20.759063)scale(0.06 -0.06)">
      <defs>
       <path d="M 34.1875 63.1875 
L 20.796875 26.90625 
L 47.609375 26.90625 
z
M 28.609375 72.90625 
L 39.796875 72.90625 
L 67.578125 0 
L 57.328125 0 
L 50.6875 18.703125 
L 17.828125 18.703125 
L 11.1875 0 
L 0.78125 0 
z
" id="DejaVuSans-65"/>
       <path d="M 9.421875 75.984375 
L 18.40625 75.984375 
L 18.40625 0 
L 9.421875 0 
z
" id="DejaVuSans-108"/>
       <path id="DejaVuSans-32"/>
       <path d="M 19.671875 64.796875 
L 19.671875 8.109375 
L 31.59375 8.109375 
Q 46.6875 8.109375 53.6875 14.9375 
Q 60.6875 21.78125 60.6875 36.53125 
Q 60.6875 51.171875 53.6875 57.984375 
Q 46.6875 64.796875 31.59375 64.796875 
z
M 9.8125 72.90625 
L 30.078125 72.90625 
Q 51.265625 72.90625 61.171875 64.09375 
Q 71.09375 55.28125 71.09375 36.53125 
Q 71.09375 17.671875 61.125 8.828125 
Q 51.171875 0 30.078125 0 
L 9.8125 0 
z
" id="DejaVuSans-68"/>
       <path d="M 56.203125 29.59375 
L 56.203125 25.203125 
L 14.890625 25.203125 
Q 15.484375 15.921875 20.484375 11.0625 
Q 25.484375 6.203125 34.421875 6.203125 
Q 39.59375 6.203125 44.453125 7.46875 
Q 49.3125 8.734375 54.109375 11.28125 
L 54.109375 2.78125 
Q 49.265625 0.734375 44.1875 -0.34375 
Q 39.109375 -1.421875 33.890625 -1.421875 
Q 20.796875 -1.421875 13.15625 6.1875 
Q 5.515625 13.8125 5.515625 26.8125 
Q 5.515625 40.234375 12.765625 48.109375 
Q 20.015625 56 32.328125 56 
Q 43.359375 56 49.78125 48.890625 
Q 56.203125 41.796875 56.203125 29.59375 
z
M 47.21875 32.234375 
Q 47.125 39.59375 43.09375 43.984375 
Q 39.0625 48.390625 32.421875 48.390625 
Q 24.90625 48.390625 20.390625 44.140625 
Q 15.875 39.890625 15.1875 32.171875 
z
" id="DejaVuSans-101"/>
       <path d="M 2.984375 54.6875 
L 12.5 54.6875 
L 29.59375 8.796875 
L 46.6875 54.6875 
L 56.203125 54.6875 
L 35.6875 0 
L 23.484375 0 
z
" id="DejaVuSans-118"/>
       <path d="M 44.28125 53.078125 
L 44.28125 44.578125 
Q 40.484375 46.53125 36.375 47.5 
Q 32.28125 48.484375 27.875 48.484375 
Q 21.1875 48.484375 17.84375 46.4375 
Q 14.5 44.390625 14.5 40.28125 
Q 14.5 37.15625 16.890625 35.375 
Q 19.28125 33.59375 26.515625 31.984375 
L 29.59375 31.296875 
Q 39.15625 29.25 43.1875 25.515625 
Q 47.21875 21.78125 47.21875 15.09375 
Q 47.21875 7.46875 41.1875 3.015625 
Q 35.15625 -1.421875 24.609375 -1.421875 
Q 20.21875 -1.421875 15.453125 -0.5625 
Q 10.6875 0.296875 5.421875 2 
L 5.421875 11.28125 
Q 10.40625 8.6875 15.234375 7.390625 
Q 20.0625 6.109375 24.8125 6.109375 
Q 31.15625 6.109375 34.5625 8.28125 
Q 37.984375 10.453125 37.984375 14.40625 
Q 37.984375 18.0625 35.515625 20.015625 
Q 33.0625 21.96875 24.703125 23.78125 
L 21.578125 24.515625 
Q 13.234375 26.265625 9.515625 29.90625 
Q 5.8125 33.546875 5.8125 39.890625 
Q 5.8125 47.609375 11.28125 51.796875 
Q 16.75 56 26.8125 56 
Q 31.78125 56 36.171875 55.265625 
Q 40.578125 54.546875 44.28125 53.078125 
z
" id="DejaVuSans-115"/>
      </defs>
      <use xlink:href="#DejaVuSans-65"/>
      <use x="68.408203" xlink:href="#DejaVuSans-108"/>
      <use x="96.191406" xlink:href="#DejaVuSans-108"/>
      <use x="123.974609" xlink:href="#DejaVuSans-32"/>
      <use x="155.761719" xlink:href="#DejaVuSans-68"/>
      <use x="232.763672" xlink:href="#DejaVuSans-101"/>
      <use x="294.287109" xlink:href="#DejaVuSans-118"/>
      <use x="353.466797" xlink:href="#DejaVuSans-115"/>
     </g>
    </g>
    <g id="line2d_27">
     <path d="M 60.95 27.465938 
L 72.95 27.465938 
" style="fill:none;stroke:#348abd;stroke-linecap:square;stroke-width:1.5;"/>
    </g>
    <g id="line2d_28"/>
    <g id="text_8">
     <!-- Python -->
     <g transform="translate(77.75 29.565938)scale(0.06 -0.06)">
      <defs>
       <path d="M 19.671875 64.796875 
L 19.671875 37.40625 
L 32.078125 37.40625 
Q 38.96875 37.40625 42.71875 40.96875 
Q 46.484375 44.53125 46.484375 51.125 
Q 46.484375 57.671875 42.71875 61.234375 
Q 38.96875 64.796875 32.078125 64.796875 
z
M 9.8125 72.90625 
L 32.078125 72.90625 
Q 44.34375 72.90625 50.609375 67.359375 
Q 56.890625 61.8125 56.890625 51.125 
Q 56.890625 40.328125 50.609375 34.8125 
Q 44.34375 29.296875 32.078125 29.296875 
L 19.671875 29.296875 
L 19.671875 0 
L 9.8125 0 
z
" id="DejaVuSans-80"/>
       <path d="M 32.171875 -5.078125 
Q 28.375 -14.84375 24.75 -17.8125 
Q 21.140625 -20.796875 15.09375 -20.796875 
L 7.90625 -20.796875 
L 7.90625 -13.28125 
L 13.1875 -13.28125 
Q 16.890625 -13.28125 18.9375 -11.515625 
Q 21 -9.765625 23.484375 -3.21875 
L 25.09375 0.875 
L 2.984375 54.6875 
L 12.5 54.6875 
L 29.59375 11.921875 
L 46.6875 54.6875 
L 56.203125 54.6875 
z
" id="DejaVuSans-121"/>
       <path d="M 18.3125 70.21875 
L 18.3125 54.6875 
L 36.8125 54.6875 
L 36.8125 47.703125 
L 18.3125 47.703125 
L 18.3125 18.015625 
Q 18.3125 11.328125 20.140625 9.421875 
Q 21.96875 7.515625 27.59375 7.515625 
L 36.8125 7.515625 
L 36.8125 0 
L 27.59375 0 
Q 17.1875 0 13.234375 3.875 
Q 9.28125 7.765625 9.28125 18.015625 
L 9.28125 47.703125 
L 2.6875 47.703125 
L 2.6875 54.6875 
L 9.28125 54.6875 
L 9.28125 70.21875 
z
" id="DejaVuSans-116"/>
       <path d="M 54.890625 33.015625 
L 54.890625 0 
L 45.90625 0 
L 45.90625 32.71875 
Q 45.90625 40.484375 42.875 44.328125 
Q 39.84375 48.1875 33.796875 48.1875 
Q 26.515625 48.1875 22.3125 43.546875 
Q 18.109375 38.921875 18.109375 30.90625 
L 18.109375 0 
L 9.078125 0 
L 9.078125 75.984375 
L 18.109375 75.984375 
L 18.109375 46.1875 
Q 21.34375 51.125 25.703125 53.5625 
Q 30.078125 56 35.796875 56 
Q 45.21875 56 50.046875 50.171875 
Q 54.890625 44.34375 54.890625 33.015625 
z
" id="DejaVuSans-104"/>
       <path d="M 30.609375 48.390625 
Q 23.390625 48.390625 19.1875 42.75 
Q 14.984375 37.109375 14.984375 27.296875 
Q 14.984375 17.484375 19.15625 11.84375 
Q 23.34375 6.203125 30.609375 6.203125 
Q 37.796875 6.203125 41.984375 11.859375 
Q 46.1875 17.53125 46.1875 27.296875 
Q 46.1875 37.015625 41.984375 42.703125 
Q 37.796875 48.390625 30.609375 48.390625 
z
M 30.609375 56 
Q 42.328125 56 49.015625 48.375 
Q 55.71875 40.765625 55.71875 27.296875 
Q 55.71875 13.875 49.015625 6.21875 
Q 42.328125 -1.421875 30.609375 -1.421875 
Q 18.84375 -1.421875 12.171875 6.21875 
Q 5.515625 13.875 5.515625 27.296875 
Q 5.515625 40.765625 12.171875 48.375 
Q 18.84375 56 30.609375 56 
z
" id="DejaVuSans-111"/>
       <path d="M 54.890625 33.015625 
L 54.890625 0 
L 45.90625 0 
L 45.90625 32.71875 
Q 45.90625 40.484375 42.875 44.328125 
Q 39.84375 48.1875 33.796875 48.1875 
Q 26.515625 48.1875 22.3125 43.546875 
Q 18.109375 38.921875 18.109375 30.90625 
L 18.109375 0 
L 9.078125 0 
L 9.078125 54.6875 
L 18.109375 54.6875 
L 18.109375 46.1875 
Q 21.34375 51.125 25.703125 53.5625 
Q 30.078125 56 35.796875 56 
Q 45.21875 56 50.046875 50.171875 
Q 54.890625 44.34375 54.890625 33.015625 
z
" id="DejaVuSans-110"/>
      </defs>
      <use xlink:href="#DejaVuSans-80"/>
      <use x="60.302734" xlink:href="#DejaVuSans-121"/>
      <use x="119.482422" xlink:href="#DejaVuSans-116"/>
      <use x="158.691406" xlink:href="#DejaVuSans-104"/>
      <use x="222.070312" xlink:href="#DejaVuSans-111"/>
      <use x="283.251953" xlink:href="#DejaVuSans-110"/>
     </g>
    </g>
   </g>
  </g>
  <g id="axes_2">
   <g id="patch_8">
    <path d="M 389.525 200.35 
L 709.2 200.35 
L 709.2 10.8 
L 389.525 10.8 
z
" style="fill:#e5e5e5;"/>
   </g>
   <g id="matplotlib.axis_3">
    <g id="xtick_6">
     <g id="line2d_29">
      <path clip-path="url(#pfc5ebfce33)" d="M 417.894426 200.35 
L 417.894426 10.8 
" style="fill:none;stroke:#ffffff;stroke-linecap:square;stroke-width:0.8;"/>
     </g>
     <g id="line2d_30">
      <g>
       <use style="fill:#555555;stroke:#555555;stroke-width:0.8;" x="417.894426" xlink:href="#mbb55b49028" y="200.35"/>
      </g>
     </g>
    </g>
    <g id="xtick_7">
     <g id="line2d_31">
      <path clip-path="url(#pfc5ebfce33)" d="M 487.088149 200.35 
L 487.088149 10.8 
" style="fill:none;stroke:#ffffff;stroke-linecap:square;stroke-width:0.8;"/>
     </g>
     <g id="line2d_32">
      <g>
       <use style="fill:#555555;stroke:#555555;stroke-width:0.8;" x="487.088149" xlink:href="#mbb55b49028" y="200.35"/>
      </g>
     </g>
    </g>
    <g id="xtick_8">
     <g id="line2d_33">
      <path clip-path="url(#pfc5ebfce33)" d="M 556.281872 200.35 
L 556.281872 10.8 
" style="fill:none;stroke:#ffffff;stroke-linecap:square;stroke-width:0.8;"/>
     </g>
     <g id="line2d_34">
      <g>
       <use style="fill:#555555;stroke:#555555;stroke-width:0.8;" x="556.281872" xlink:href="#mbb55b49028" y="200.35"/>
      </g>
     </g>
    </g>
    <g id="xtick_9">
     <g id="line2d_35">
      <path clip-path="url(#pfc5ebfce33)" d="M 625.475595 200.35 
L 625.475595 10.8 
" style="fill:none;stroke:#ffffff;stroke-linecap:square;stroke-width:0.8;"/>
     </g>
     <g id="line2d_36">
      <g>
       <use style="fill:#555555;stroke:#555555;stroke-width:0.8;" x="625.475595" xlink:href="#mbb55b49028" y="200.35"/>
      </g>
     </g>
    </g>
    <g id="xtick_10">
     <g id="line2d_37">
      <path clip-path="url(#pfc5ebfce33)" d="M 694.669318 200.35 
L 694.669318 10.8 
" style="fill:none;stroke:#ffffff;stroke-linecap:square;stroke-width:0.8;"/>
     </g>
     <g id="line2d_38">
      <g>
       <use style="fill:#555555;stroke:#555555;stroke-width:0.8;" x="694.669318" xlink:href="#mbb55b49028" y="200.35"/>
      </g>
     </g>
    </g>
   </g>
   <g id="matplotlib.axis_4">
    <g id="ytick_7">
     <g id="line2d_39">
      <path clip-path="url(#pfc5ebfce33)" d="M 389.525 179.441108 
L 709.2 179.441108 
" style="fill:none;stroke:#ffffff;stroke-linecap:square;stroke-width:0.8;"/>
     </g>
     <g id="line2d_40">
      <g>
       <use style="fill:#555555;stroke:#555555;stroke-width:0.8;" x="389.525" xlink:href="#m1649e55265" y="179.441108"/>
      </g>
     </g>
    </g>
    <g id="ytick_8">
     <g id="line2d_41">
      <path clip-path="url(#pfc5ebfce33)" d="M 389.525 148.960117 
L 709.2 148.960117 
" style="fill:none;stroke:#ffffff;stroke-linecap:square;stroke-width:0.8;"/>
     </g>
     <g id="line2d_42">
      <g>
       <use style="fill:#555555;stroke:#555555;stroke-width:0.8;" x="389.525" xlink:href="#m1649e55265" y="148.960117"/>
      </g>
     </g>
    </g>
    <g id="ytick_9">
     <g id="line2d_43">
      <path clip-path="url(#pfc5ebfce33)" d="M 389.525 118.479127 
L 709.2 118.479127 
" style="fill:none;stroke:#ffffff;stroke-linecap:square;stroke-width:0.8;"/>
     </g>
     <g id="line2d_44">
      <g>
       <use style="fill:#555555;stroke:#555555;stroke-width:0.8;" x="389.525" xlink:href="#m1649e55265" y="118.479127"/>
      </g>
     </g>
    </g>
    <g id="ytick_10">
     <g id="line2d_45">
      <path clip-path="url(#pfc5ebfce33)" d="M 389.525 87.998137 
L 709.2 87.998137 
" style="fill:none;stroke:#ffffff;stroke-linecap:square;stroke-width:0.8;"/>
     </g>
     <g id="line2d_46">
      <g>
       <use style="fill:#555555;stroke:#555555;stroke-width:0.8;" x="389.525" xlink:href="#m1649e55265" y="87.998137"/>
      </g>
     </g>
    </g>
    <g id="ytick_11">
     <g id="line2d_47">
      <path clip-path="url(#pfc5ebfce33)" d="M 389.525 57.517147 
L 709.2 57.517147 
" style="fill:none;stroke:#ffffff;stroke-linecap:square;stroke-width:0.8;"/>
     </g>
     <g id="line2d_48">
      <g>
       <use style="fill:#555555;stroke:#555555;stroke-width:0.8;" x="389.525" xlink:href="#m1649e55265" y="57.517147"/>
      </g>
     </g>
    </g>
    <g id="ytick_12">
     <g id="line2d_49">
      <path clip-path="url(#pfc5ebfce33)" d="M 389.525 27.036157 
L 709.2 27.036157 
" style="fill:none;stroke:#ffffff;stroke-linecap:square;stroke-width:0.8;"/>
     </g>
     <g id="line2d_50">
      <g>
       <use style="fill:#555555;stroke:#555555;stroke-width:0.8;" x="389.525" xlink:href="#m1649e55265" y="27.036157"/>
      </g>
     </g>
    </g>
   </g>
   <g id="line2d_51">
    <path clip-path="url(#pfc5ebfce33)" d="M 404.055682 189.822933 
L 410.975054 187.061355 
L 417.894426 188.176959 
L 424.813799 176.307662 
L 431.733171 175.210346 
L 438.652543 168.553298 
L 445.571916 163.713679 
L 452.491288 158.690411 
L 459.41066 151.764368 
L 466.330032 144.023721 
L 473.249405 137.897042 
L 480.168777 135.786233 
L 487.088149 127.548746 
L 494.007522 122.606253 
L 500.926894 119.481952 
L 507.846266 116.016263 
L 514.765639 109.426273 
L 521.685011 106.183096 
L 528.604383 100.190533 
L 535.523755 97.235401 
L 542.443128 95.024005 
L 549.3625 91.302276 
L 556.281872 91.046236 
L 563.201245 86.361308 
L 570.120617 86.361308 
L 577.039989 87.998137 
L 583.959361 76.488515 
L 590.878734 87.192677 
L 597.798106 70.710081 
L 604.717478 80.013642 
L 611.636851 86.361308 
L 618.556223 60.653641 
L 625.475595 65.137394 
L 632.394968 76.927441 
L 639.31434 60.565246 
L 646.233712 49.223269 
L 653.153084 77.06613 
L 660.072457 61.650369 
L 666.991829 45.250072 
L 673.911201 75.15802 
L 680.830574 47.536147 
L 687.749946 35.418429 
L 694.669318 61.650369 
" style="fill:none;stroke:#e24a33;stroke-linecap:square;stroke-width:1.5;"/>
   </g>
   <g id="line2d_52">
    <path clip-path="url(#pfc5ebfce33)" d="M 404.055682 191.734091 
L 410.975054 186.201791 
L 417.894426 186.128637 
L 424.813799 176.972147 
L 431.733171 174.211332 
L 438.652543 170.565043 
L 445.571916 163.871418 
L 452.491288 158.7087 
L 459.41066 153.860699 
L 466.330032 144.023721 
L 473.249405 138.742889 
L 480.168777 135.853292 
L 487.088149 129.20996 
L 494.007522 123.127478 
L 500.926894 122.37917 
L 507.846266 116.016263 
L 514.765639 109.426273 
L 521.685011 104.954712 
L 528.604383 100.190533 
L 535.523755 95.137547 
L 542.443128 91.046236 
L 549.3625 93.170761 
L 556.281872 88.008805 
L 563.201245 82.378966 
L 570.120617 85.071962 
L 577.039989 87.998137 
L 583.959361 78.85384 
L 590.878734 87.998137 
L 597.798106 66.255285 
L 604.717478 77.839585 
L 611.636851 78.125344 
L 618.556223 63.613345 
L 625.475595 71.532306 
L 632.394968 67.373175 
L 639.31434 57.517147 
L 646.233712 51.762336 
L 653.153084 78.347856 
L 660.072457 57.517147 
L 666.991829 42.276652 
L 673.911201 93.160855 
L 680.830574 45.175394 
L 687.749946 63.797755 
L 694.669318 76.403168 
" style="fill:none;stroke:#348abd;stroke-linecap:square;stroke-width:1.5;"/>
   </g>
   <g id="patch_9">
    <path d="M 389.525 200.35 
L 389.525 10.8 
" style="fill:none;stroke:#ffffff;stroke-linecap:square;stroke-linejoin:miter;"/>
   </g>
   <g id="patch_10">
    <path d="M 709.2 200.35 
L 709.2 10.8 
" style="fill:none;stroke:#ffffff;stroke-linecap:square;stroke-linejoin:miter;"/>
   </g>
   <g id="patch_11">
    <path d="M 389.525 200.35 
L 709.2 200.35 
" style="fill:none;stroke:#ffffff;stroke-linecap:square;stroke-linejoin:miter;"/>
   </g>
   <g id="patch_12">
    <path d="M 389.525 10.8 
L 709.2 10.8 
" style="fill:none;stroke:#ffffff;stroke-linecap:square;stroke-linejoin:miter;"/>
   </g>
   <g id="legend_2">
    <g id="patch_13">
     <path d="M 393.725 33.21375 
L 440.650625 33.21375 
Q 441.850625 33.21375 441.850625 32.01375 
L 441.850625 15 
Q 441.850625 13.8 440.650625 13.8 
L 393.725 13.8 
Q 392.525 13.8 392.525 15 
L 392.525 32.01375 
Q 392.525 33.21375 393.725 33.21375 
z
" style="fill:#e5e5e5;opacity:0.8;stroke:#cccccc;stroke-linejoin:miter;stroke-width:0.5;"/>
    </g>
    <g id="line2d_53">
     <path d="M 394.925 18.659063 
L 406.925 18.659063 
" style="fill:none;stroke:#e24a33;stroke-linecap:square;stroke-width:1.5;"/>
    </g>
    <g id="line2d_54"/>
    <g id="text_9">
     <!-- All Devs -->
     <g transform="translate(411.725 20.759063)scale(0.06 -0.06)">
      <use xlink:href="#DejaVuSans-65"/>
      <use x="68.408203" xlink:href="#DejaVuSans-108"/>
      <use x="96.191406" xlink:href="#DejaVuSans-108"/>
      <use x="123.974609" xlink:href="#DejaVuSans-32"/>
      <use x="155.761719" xlink:href="#DejaVuSans-68"/>
      <use x="232.763672" xlink:href="#DejaVuSans-101"/>
      <use x="294.287109" xlink:href="#DejaVuSans-118"/>
      <use x="353.466797" xlink:href="#DejaVuSans-115"/>
     </g>
    </g>
    <g id="line2d_55">
     <path d="M 394.925 27.465938 
L 406.925 27.465938 
" style="fill:none;stroke:#348abd;stroke-linecap:square;stroke-width:1.5;"/>
    </g>
    <g id="line2d_56"/>
    <g id="text_10">
     <!-- JavaScrip -->
     <g transform="translate(411.725 29.565938)scale(0.06 -0.06)">
      <defs>
       <path d="M 9.8125 72.90625 
L 19.671875 72.90625 
L 19.671875 5.078125 
Q 19.671875 -8.109375 14.671875 -14.0625 
Q 9.671875 -20.015625 -1.421875 -20.015625 
L -5.171875 -20.015625 
L -5.171875 -11.71875 
L -2.09375 -11.71875 
Q 4.4375 -11.71875 7.125 -8.046875 
Q 9.8125 -4.390625 9.8125 5.078125 
z
" id="DejaVuSans-74"/>
       <path d="M 34.28125 27.484375 
Q 23.390625 27.484375 19.1875 25 
Q 14.984375 22.515625 14.984375 16.5 
Q 14.984375 11.71875 18.140625 8.90625 
Q 21.296875 6.109375 26.703125 6.109375 
Q 34.1875 6.109375 38.703125 11.40625 
Q 43.21875 16.703125 43.21875 25.484375 
L 43.21875 27.484375 
z
M 52.203125 31.203125 
L 52.203125 0 
L 43.21875 0 
L 43.21875 8.296875 
Q 40.140625 3.328125 35.546875 0.953125 
Q 30.953125 -1.421875 24.3125 -1.421875 
Q 15.921875 -1.421875 10.953125 3.296875 
Q 6 8.015625 6 15.921875 
Q 6 25.140625 12.171875 29.828125 
Q 18.359375 34.515625 30.609375 34.515625 
L 43.21875 34.515625 
L 43.21875 35.40625 
Q 43.21875 41.609375 39.140625 45 
Q 35.0625 48.390625 27.6875 48.390625 
Q 23 48.390625 18.546875 47.265625 
Q 14.109375 46.140625 10.015625 43.890625 
L 10.015625 52.203125 
Q 14.9375 54.109375 19.578125 55.046875 
Q 24.21875 56 28.609375 56 
Q 40.484375 56 46.34375 49.84375 
Q 52.203125 43.703125 52.203125 31.203125 
z
" id="DejaVuSans-97"/>
       <path d="M 53.515625 70.515625 
L 53.515625 60.890625 
Q 47.90625 63.578125 42.921875 64.890625 
Q 37.9375 66.21875 33.296875 66.21875 
Q 25.25 66.21875 20.875 63.09375 
Q 16.5 59.96875 16.5 54.203125 
Q 16.5 49.359375 19.40625 46.890625 
Q 22.3125 44.4375 30.421875 42.921875 
L 36.375 41.703125 
Q 47.40625 39.59375 52.65625 34.296875 
Q 57.90625 29 57.90625 20.125 
Q 57.90625 9.515625 50.796875 4.046875 
Q 43.703125 -1.421875 29.984375 -1.421875 
Q 24.8125 -1.421875 18.96875 -0.25 
Q 13.140625 0.921875 6.890625 3.21875 
L 6.890625 13.375 
Q 12.890625 10.015625 18.65625 8.296875 
Q 24.421875 6.59375 29.984375 6.59375 
Q 38.421875 6.59375 43.015625 9.90625 
Q 47.609375 13.234375 47.609375 19.390625 
Q 47.609375 24.75 44.3125 27.78125 
Q 41.015625 30.8125 33.5 32.328125 
L 27.484375 33.5 
Q 16.453125 35.6875 11.515625 40.375 
Q 6.59375 45.0625 6.59375 53.421875 
Q 6.59375 63.09375 13.40625 68.65625 
Q 20.21875 74.21875 32.171875 74.21875 
Q 37.3125 74.21875 42.625 73.28125 
Q 47.953125 72.359375 53.515625 70.515625 
z
" id="DejaVuSans-83"/>
       <path d="M 48.78125 52.59375 
L 48.78125 44.1875 
Q 44.96875 46.296875 41.140625 47.34375 
Q 37.3125 48.390625 33.40625 48.390625 
Q 24.65625 48.390625 19.8125 42.84375 
Q 14.984375 37.3125 14.984375 27.296875 
Q 14.984375 17.28125 19.8125 11.734375 
Q 24.65625 6.203125 33.40625 6.203125 
Q 37.3125 6.203125 41.140625 7.25 
Q 44.96875 8.296875 48.78125 10.40625 
L 48.78125 2.09375 
Q 45.015625 0.34375 40.984375 -0.53125 
Q 36.96875 -1.421875 32.421875 -1.421875 
Q 20.0625 -1.421875 12.78125 6.34375 
Q 5.515625 14.109375 5.515625 27.296875 
Q 5.515625 40.671875 12.859375 48.328125 
Q 20.21875 56 33.015625 56 
Q 37.15625 56 41.109375 55.140625 
Q 45.0625 54.296875 48.78125 52.59375 
z
" id="DejaVuSans-99"/>
       <path d="M 41.109375 46.296875 
Q 39.59375 47.171875 37.8125 47.578125 
Q 36.03125 48 33.890625 48 
Q 26.265625 48 22.1875 43.046875 
Q 18.109375 38.09375 18.109375 28.8125 
L 18.109375 0 
L 9.078125 0 
L 9.078125 54.6875 
L 18.109375 54.6875 
L 18.109375 46.1875 
Q 20.953125 51.171875 25.484375 53.578125 
Q 30.03125 56 36.53125 56 
Q 37.453125 56 38.578125 55.875 
Q 39.703125 55.765625 41.0625 55.515625 
z
" id="DejaVuSans-114"/>
       <path d="M 9.421875 54.6875 
L 18.40625 54.6875 
L 18.40625 0 
L 9.421875 0 
z
M 9.421875 75.984375 
L 18.40625 75.984375 
L 18.40625 64.59375 
L 9.421875 64.59375 
z
" id="DejaVuSans-105"/>
       <path d="M 18.109375 8.203125 
L 18.109375 -20.796875 
L 9.078125 -20.796875 
L 9.078125 54.6875 
L 18.109375 54.6875 
L 18.109375 46.390625 
Q 20.953125 51.265625 25.265625 53.625 
Q 29.59375 56 35.59375 56 
Q 45.5625 56 51.78125 48.09375 
Q 58.015625 40.1875 58.015625 27.296875 
Q 58.015625 14.40625 51.78125 6.484375 
Q 45.5625 -1.421875 35.59375 -1.421875 
Q 29.59375 -1.421875 25.265625 0.953125 
Q 20.953125 3.328125 18.109375 8.203125 
z
M 48.6875 27.296875 
Q 48.6875 37.203125 44.609375 42.84375 
Q 40.53125 48.484375 33.40625 48.484375 
Q 26.265625 48.484375 22.1875 42.84375 
Q 18.109375 37.203125 18.109375 27.296875 
Q 18.109375 17.390625 22.1875 11.75 
Q 26.265625 6.109375 33.40625 6.109375 
Q 40.53125 6.109375 44.609375 11.75 
Q 48.6875 17.390625 48.6875 27.296875 
z
" id="DejaVuSans-112"/>
      </defs>
      <use xlink:href="#DejaVuSans-74"/>
      <use x="29.492188" xlink:href="#DejaVuSans-97"/>
      <use x="90.771484" xlink:href="#DejaVuSans-118"/>
      <use x="149.951172" xlink:href="#DejaVuSans-97"/>
      <use x="211.230469" xlink:href="#DejaVuSans-83"/>
      <use x="274.707031" xlink:href="#DejaVuSans-99"/>
      <use x="329.6875" xlink:href="#DejaVuSans-114"/>
      <use x="370.800781" xlink:href="#DejaVuSans-105"/>
      <use x="398.583984" xlink:href="#DejaVuSans-112"/>
     </g>
    </g>
   </g>
  </g>
  <g id="axes_3">
   <g id="patch_14">
    <path d="M 55.55 404.2 
L 375.225 404.2 
L 375.225 214.65 
L 55.55 214.65 
z
" style="fill:#e5e5e5;"/>
   </g>
   <g id="matplotlib.axis_5">
    <g id="xtick_11">
     <g id="line2d_57">
      <path clip-path="url(#p27817abf1b)" d="M 83.919426 404.2 
L 83.919426 214.65 
" style="fill:none;stroke:#ffffff;stroke-linecap:square;stroke-width:0.8;"/>
     </g>
     <g id="line2d_58">
      <g>
       <use style="fill:#555555;stroke:#555555;stroke-width:0.8;" x="83.919426" xlink:href="#mbb55b49028" y="404.2"/>
      </g>
     </g>
     <g id="text_11">
      <!-- 20 -->
      <g style="fill:#555555;" transform="translate(77.556926 418.798437)scale(0.1 -0.1)">
       <use xlink:href="#DejaVuSans-50"/>
       <use x="63.623047" xlink:href="#DejaVuSans-48"/>
      </g>
     </g>
    </g>
    <g id="xtick_12">
     <g id="line2d_59">
      <path clip-path="url(#p27817abf1b)" d="M 153.113149 404.2 
L 153.113149 214.65 
" style="fill:none;stroke:#ffffff;stroke-linecap:square;stroke-width:0.8;"/>
     </g>
     <g id="line2d_60">
      <g>
       <use style="fill:#555555;stroke:#555555;stroke-width:0.8;" x="153.113149" xlink:href="#mbb55b49028" y="404.2"/>
      </g>
     </g>
     <g id="text_12">
      <!-- 30 -->
      <g style="fill:#555555;" transform="translate(146.750649 418.798437)scale(0.1 -0.1)">
       <defs>
        <path d="M 40.578125 39.3125 
Q 47.65625 37.796875 51.625 33 
Q 55.609375 28.21875 55.609375 21.1875 
Q 55.609375 10.40625 48.1875 4.484375 
Q 40.765625 -1.421875 27.09375 -1.421875 
Q 22.515625 -1.421875 17.65625 -0.515625 
Q 12.796875 0.390625 7.625 2.203125 
L 7.625 11.71875 
Q 11.71875 9.328125 16.59375 8.109375 
Q 21.484375 6.890625 26.8125 6.890625 
Q 36.078125 6.890625 40.9375 10.546875 
Q 45.796875 14.203125 45.796875 21.1875 
Q 45.796875 27.640625 41.28125 31.265625 
Q 36.765625 34.90625 28.71875 34.90625 
L 20.21875 34.90625 
L 20.21875 43.015625 
L 29.109375 43.015625 
Q 36.375 43.015625 40.234375 45.921875 
Q 44.09375 48.828125 44.09375 54.296875 
Q 44.09375 59.90625 40.109375 62.90625 
Q 36.140625 65.921875 28.71875 65.921875 
Q 24.65625 65.921875 20.015625 65.03125 
Q 15.375 64.15625 9.8125 62.3125 
L 9.8125 71.09375 
Q 15.4375 72.65625 20.34375 73.4375 
Q 25.25 74.21875 29.59375 74.21875 
Q 40.828125 74.21875 47.359375 69.109375 
Q 53.90625 64.015625 53.90625 55.328125 
Q 53.90625 49.265625 50.4375 45.09375 
Q 46.96875 40.921875 40.578125 39.3125 
z
" id="DejaVuSans-51"/>
       </defs>
       <use xlink:href="#DejaVuSans-51"/>
       <use x="63.623047" xlink:href="#DejaVuSans-48"/>
      </g>
     </g>
    </g>
    <g id="xtick_13">
     <g id="line2d_61">
      <path clip-path="url(#p27817abf1b)" d="M 222.306872 404.2 
L 222.306872 214.65 
" style="fill:none;stroke:#ffffff;stroke-linecap:square;stroke-width:0.8;"/>
     </g>
     <g id="line2d_62">
      <g>
       <use style="fill:#555555;stroke:#555555;stroke-width:0.8;" x="222.306872" xlink:href="#mbb55b49028" y="404.2"/>
      </g>
     </g>
     <g id="text_13">
      <!-- 40 -->
      <g style="fill:#555555;" transform="translate(215.944372 418.798437)scale(0.1 -0.1)">
       <use xlink:href="#DejaVuSans-52"/>
       <use x="63.623047" xlink:href="#DejaVuSans-48"/>
      </g>
     </g>
    </g>
    <g id="xtick_14">
     <g id="line2d_63">
      <path clip-path="url(#p27817abf1b)" d="M 291.500595 404.2 
L 291.500595 214.65 
" style="fill:none;stroke:#ffffff;stroke-linecap:square;stroke-width:0.8;"/>
     </g>
     <g id="line2d_64">
      <g>
       <use style="fill:#555555;stroke:#555555;stroke-width:0.8;" x="291.500595" xlink:href="#mbb55b49028" y="404.2"/>
      </g>
     </g>
     <g id="text_14">
      <!-- 50 -->
      <g style="fill:#555555;" transform="translate(285.138095 418.798437)scale(0.1 -0.1)">
       <defs>
        <path d="M 10.796875 72.90625 
L 49.515625 72.90625 
L 49.515625 64.59375 
L 19.828125 64.59375 
L 19.828125 46.734375 
Q 21.96875 47.46875 24.109375 47.828125 
Q 26.265625 48.1875 28.421875 48.1875 
Q 40.625 48.1875 47.75 41.5 
Q 54.890625 34.8125 54.890625 23.390625 
Q 54.890625 11.625 47.5625 5.09375 
Q 40.234375 -1.421875 26.90625 -1.421875 
Q 22.3125 -1.421875 17.546875 -0.640625 
Q 12.796875 0.140625 7.71875 1.703125 
L 7.71875 11.625 
Q 12.109375 9.234375 16.796875 8.0625 
Q 21.484375 6.890625 26.703125 6.890625 
Q 35.15625 6.890625 40.078125 11.328125 
Q 45.015625 15.765625 45.015625 23.390625 
Q 45.015625 31 40.078125 35.4375 
Q 35.15625 39.890625 26.703125 39.890625 
Q 22.75 39.890625 18.8125 39.015625 
Q 14.890625 38.140625 10.796875 36.28125 
z
" id="DejaVuSans-53"/>
       </defs>
       <use xlink:href="#DejaVuSans-53"/>
       <use x="63.623047" xlink:href="#DejaVuSans-48"/>
      </g>
     </g>
    </g>
    <g id="xtick_15">
     <g id="line2d_65">
      <path clip-path="url(#p27817abf1b)" d="M 360.694318 404.2 
L 360.694318 214.65 
" style="fill:none;stroke:#ffffff;stroke-linecap:square;stroke-width:0.8;"/>
     </g>
     <g id="line2d_66">
      <g>
       <use style="fill:#555555;stroke:#555555;stroke-width:0.8;" x="360.694318" xlink:href="#mbb55b49028" y="404.2"/>
      </g>
     </g>
     <g id="text_15">
      <!-- 60 -->
      <g style="fill:#555555;" transform="translate(354.331818 418.798437)scale(0.1 -0.1)">
       <use xlink:href="#DejaVuSans-54"/>
       <use x="63.623047" xlink:href="#DejaVuSans-48"/>
      </g>
     </g>
    </g>
   </g>
   <g id="matplotlib.axis_6">
    <g id="ytick_13">
     <g id="line2d_67">
      <path clip-path="url(#p27817abf1b)" d="M 55.55 383.291108 
L 375.225 383.291108 
" style="fill:none;stroke:#ffffff;stroke-linecap:square;stroke-width:0.8;"/>
     </g>
     <g id="line2d_68">
      <g>
       <use style="fill:#555555;stroke:#555555;stroke-width:0.8;" x="55.55" xlink:href="#m1649e55265" y="383.291108"/>
      </g>
     </g>
     <g id="text_16">
      <!-- 20000 -->
      <g style="fill:#555555;" transform="translate(16.7375 387.090326)scale(0.1 -0.1)">
       <use xlink:href="#DejaVuSans-50"/>
       <use x="63.623047" xlink:href="#DejaVuSans-48"/>
       <use x="127.246094" xlink:href="#DejaVuSans-48"/>
       <use x="190.869141" xlink:href="#DejaVuSans-48"/>
       <use x="254.492188" xlink:href="#DejaVuSans-48"/>
      </g>
     </g>
    </g>
    <g id="ytick_14">
     <g id="line2d_69">
      <path clip-path="url(#p27817abf1b)" d="M 55.55 352.810117 
L 375.225 352.810117 
" style="fill:none;stroke:#ffffff;stroke-linecap:square;stroke-width:0.8;"/>
     </g>
     <g id="line2d_70">
      <g>
       <use style="fill:#555555;stroke:#555555;stroke-width:0.8;" x="55.55" xlink:href="#m1649e55265" y="352.810117"/>
      </g>
     </g>
     <g id="text_17">
      <!-- 40000 -->
      <g style="fill:#555555;" transform="translate(16.7375 356.609336)scale(0.1 -0.1)">
       <use xlink:href="#DejaVuSans-52"/>
       <use x="63.623047" xlink:href="#DejaVuSans-48"/>
       <use x="127.246094" xlink:href="#DejaVuSans-48"/>
       <use x="190.869141" xlink:href="#DejaVuSans-48"/>
       <use x="254.492188" xlink:href="#DejaVuSans-48"/>
      </g>
     </g>
    </g>
    <g id="ytick_15">
     <g id="line2d_71">
      <path clip-path="url(#p27817abf1b)" d="M 55.55 322.329127 
L 375.225 322.329127 
" style="fill:none;stroke:#ffffff;stroke-linecap:square;stroke-width:0.8;"/>
     </g>
     <g id="line2d_72">
      <g>
       <use style="fill:#555555;stroke:#555555;stroke-width:0.8;" x="55.55" xlink:href="#m1649e55265" y="322.329127"/>
      </g>
     </g>
     <g id="text_18">
      <!-- 60000 -->
      <g style="fill:#555555;" transform="translate(16.7375 326.128346)scale(0.1 -0.1)">
       <use xlink:href="#DejaVuSans-54"/>
       <use x="63.623047" xlink:href="#DejaVuSans-48"/>
       <use x="127.246094" xlink:href="#DejaVuSans-48"/>
       <use x="190.869141" xlink:href="#DejaVuSans-48"/>
       <use x="254.492188" xlink:href="#DejaVuSans-48"/>
      </g>
     </g>
    </g>
    <g id="ytick_16">
     <g id="line2d_73">
      <path clip-path="url(#p27817abf1b)" d="M 55.55 291.848137 
L 375.225 291.848137 
" style="fill:none;stroke:#ffffff;stroke-linecap:square;stroke-width:0.8;"/>
     </g>
     <g id="line2d_74">
      <g>
       <use style="fill:#555555;stroke:#555555;stroke-width:0.8;" x="55.55" xlink:href="#m1649e55265" y="291.848137"/>
      </g>
     </g>
     <g id="text_19">
      <!-- 80000 -->
      <g style="fill:#555555;" transform="translate(16.7375 295.647356)scale(0.1 -0.1)">
       <use xlink:href="#DejaVuSans-56"/>
       <use x="63.623047" xlink:href="#DejaVuSans-48"/>
       <use x="127.246094" xlink:href="#DejaVuSans-48"/>
       <use x="190.869141" xlink:href="#DejaVuSans-48"/>
       <use x="254.492188" xlink:href="#DejaVuSans-48"/>
      </g>
     </g>
    </g>
    <g id="ytick_17">
     <g id="line2d_75">
      <path clip-path="url(#p27817abf1b)" d="M 55.55 261.367147 
L 375.225 261.367147 
" style="fill:none;stroke:#ffffff;stroke-linecap:square;stroke-width:0.8;"/>
     </g>
     <g id="line2d_76">
      <g>
       <use style="fill:#555555;stroke:#555555;stroke-width:0.8;" x="55.55" xlink:href="#m1649e55265" y="261.367147"/>
      </g>
     </g>
     <g id="text_20">
      <!-- 100000 -->
      <g style="fill:#555555;" transform="translate(10.375 265.166366)scale(0.1 -0.1)">
       <use xlink:href="#DejaVuSans-49"/>
       <use x="63.623047" xlink:href="#DejaVuSans-48"/>
       <use x="127.246094" xlink:href="#DejaVuSans-48"/>
       <use x="190.869141" xlink:href="#DejaVuSans-48"/>
       <use x="254.492188" xlink:href="#DejaVuSans-48"/>
       <use x="318.115234" xlink:href="#DejaVuSans-48"/>
      </g>
     </g>
    </g>
    <g id="ytick_18">
     <g id="line2d_77">
      <path clip-path="url(#p27817abf1b)" d="M 55.55 230.886157 
L 375.225 230.886157 
" style="fill:none;stroke:#ffffff;stroke-linecap:square;stroke-width:0.8;"/>
     </g>
     <g id="line2d_78">
      <g>
       <use style="fill:#555555;stroke:#555555;stroke-width:0.8;" x="55.55" xlink:href="#m1649e55265" y="230.886157"/>
      </g>
     </g>
     <g id="text_21">
      <!-- 120000 -->
      <g style="fill:#555555;" transform="translate(10.375 234.685375)scale(0.1 -0.1)">
       <use xlink:href="#DejaVuSans-49"/>
       <use x="63.623047" xlink:href="#DejaVuSans-50"/>
       <use x="127.246094" xlink:href="#DejaVuSans-48"/>
       <use x="190.869141" xlink:href="#DejaVuSans-48"/>
       <use x="254.492188" xlink:href="#DejaVuSans-48"/>
       <use x="318.115234" xlink:href="#DejaVuSans-48"/>
      </g>
     </g>
    </g>
   </g>
   <g id="line2d_79">
    <path clip-path="url(#p27817abf1b)" d="M 70.080682 382.00481 
L 77.000054 390.911355 
L 83.919426 390.701036 
L 90.838799 379.298098 
L 97.758171 370.967643 
L 104.677543 370.281821 
L 111.596916 359.15626 
L 118.516288 354.672506 
L 125.43566 343.900524 
L 132.355032 338.849824 
L 139.274405 331.296635 
L 146.193777 326.663524 
L 153.113149 319.860167 
L 160.032522 314.922247 
L 166.951894 311.628776 
L 173.871266 314.09164 
L 180.790639 303.391288 
L 187.710011 295.775613 
L 194.629383 288.640013 
L 201.548755 287.424583 
L 208.468128 285.270339 
L 215.3875 282.606301 
L 222.306872 277.182971 
L 229.226245 273.178531 
L 236.145617 284.227889 
L 243.064989 290.211308 
L 249.984361 258.319048 
L 256.903734 298.448795 
L 263.823106 270.105285 
L 270.742478 249.025394 
L 277.661851 282.271772 
L 284.581223 245.736495 
L 291.500595 261.367147 
L 298.419968 241.731293 
L 305.33934 258.900473 
L 312.258712 253.746899 
L 319.178084 286.606169 
L 326.097457 266.231913 
L 333.016829 224.789959 
L 339.936201 233.934256 
L 346.855574 226.954109 
L 353.774946 223.265909 
L 360.694318 253.746899 
" style="fill:none;stroke:#e24a33;stroke-linecap:square;stroke-width:1.5;"/>
   </g>
   <g id="line2d_80">
    <path clip-path="url(#p27817abf1b)" d="M 70.080682 395.584091 
L 77.000054 390.051791 
L 83.919426 389.978637 
L 90.838799 380.822147 
L 97.758171 378.061332 
L 104.677543 374.415043 
L 111.596916 367.721418 
L 118.516288 362.5587 
L 125.43566 357.710699 
L 132.355032 347.873721 
L 139.274405 342.592889 
L 146.193777 339.703292 
L 153.113149 333.05996 
L 160.032522 326.977478 
L 166.951894 326.22917 
L 173.871266 319.866263 
L 180.790639 313.276273 
L 187.710011 308.804712 
L 194.629383 304.040533 
L 201.548755 298.987547 
L 208.468128 294.896236 
L 215.3875 297.020761 
L 222.306872 291.858805 
L 229.226245 286.228966 
L 236.145617 288.921962 
L 243.064989 291.848137 
L 249.984361 282.70384 
L 256.903734 291.848137 
L 263.823106 270.105285 
L 270.742478 281.689585 
L 277.661851 281.975344 
L 284.581223 267.463345 
L 291.500595 275.382306 
L 298.419968 271.223175 
L 305.33934 261.367147 
L 312.258712 255.612336 
L 319.178084 282.197856 
L 326.097457 261.367147 
L 333.016829 246.126652 
L 339.936201 297.010855 
L 346.855574 249.025394 
L 353.774946 267.647755 
L 360.694318 280.253168 
" style="fill:none;stroke:#348abd;stroke-linecap:square;stroke-width:1.5;"/>
   </g>
   <g id="patch_15">
    <path d="M 55.55 404.2 
L 55.55 214.65 
" style="fill:none;stroke:#ffffff;stroke-linecap:square;stroke-linejoin:miter;"/>
   </g>
   <g id="patch_16">
    <path d="M 375.225 404.2 
L 375.225 214.65 
" style="fill:none;stroke:#ffffff;stroke-linecap:square;stroke-linejoin:miter;"/>
   </g>
   <g id="patch_17">
    <path d="M 55.55 404.2 
L 375.225 404.2 
" style="fill:none;stroke:#ffffff;stroke-linecap:square;stroke-linejoin:miter;"/>
   </g>
   <g id="patch_18">
    <path d="M 55.55 214.65 
L 375.225 214.65 
" style="fill:none;stroke:#ffffff;stroke-linecap:square;stroke-linejoin:miter;"/>
   </g>
   <g id="legend_3">
    <g id="patch_19">
     <path d="M 59.75 237.06375 
L 109.027812 237.06375 
Q 110.227812 237.06375 110.227812 235.86375 
L 110.227812 218.85 
Q 110.227812 217.65 109.027812 217.65 
L 59.75 217.65 
Q 58.55 217.65 58.55 218.85 
L 58.55 235.86375 
Q 58.55 237.06375 59.75 237.06375 
z
" style="fill:#e5e5e5;opacity:0.8;stroke:#cccccc;stroke-linejoin:miter;stroke-width:0.5;"/>
    </g>
    <g id="line2d_81">
     <path d="M 60.95 222.509062 
L 72.95 222.509062 
" style="fill:none;stroke:#e24a33;stroke-linecap:square;stroke-width:1.5;"/>
    </g>
    <g id="line2d_82"/>
    <g id="text_22">
     <!-- Python -->
     <g transform="translate(77.75 224.609062)scale(0.06 -0.06)">
      <use xlink:href="#DejaVuSans-80"/>
      <use x="60.302734" xlink:href="#DejaVuSans-121"/>
      <use x="119.482422" xlink:href="#DejaVuSans-116"/>
      <use x="158.691406" xlink:href="#DejaVuSans-104"/>
      <use x="222.070312" xlink:href="#DejaVuSans-111"/>
      <use x="283.251953" xlink:href="#DejaVuSans-110"/>
     </g>
    </g>
    <g id="line2d_83">
     <path d="M 60.95 231.315937 
L 72.95 231.315937 
" style="fill:none;stroke:#348abd;stroke-linecap:square;stroke-width:1.5;"/>
    </g>
    <g id="line2d_84"/>
    <g id="text_23">
     <!-- JavaScript -->
     <g transform="translate(77.75 233.415937)scale(0.06 -0.06)">
      <use xlink:href="#DejaVuSans-74"/>
      <use x="29.492188" xlink:href="#DejaVuSans-97"/>
      <use x="90.771484" xlink:href="#DejaVuSans-118"/>
      <use x="149.951172" xlink:href="#DejaVuSans-97"/>
      <use x="211.230469" xlink:href="#DejaVuSans-83"/>
      <use x="274.707031" xlink:href="#DejaVuSans-99"/>
      <use x="329.6875" xlink:href="#DejaVuSans-114"/>
      <use x="370.800781" xlink:href="#DejaVuSans-105"/>
      <use x="398.583984" xlink:href="#DejaVuSans-112"/>
      <use x="462.060547" xlink:href="#DejaVuSans-116"/>
     </g>
    </g>
   </g>
  </g>
  <g id="axes_4">
   <g id="patch_20">
    <path d="M 389.525 404.2 
L 709.2 404.2 
L 709.2 214.65 
L 389.525 214.65 
z
" style="fill:#e5e5e5;"/>
   </g>
   <g id="matplotlib.axis_7">
    <g id="xtick_16">
     <g id="line2d_85">
      <path clip-path="url(#paea5a479b6)" d="M 417.894426 404.2 
L 417.894426 214.65 
" style="fill:none;stroke:#ffffff;stroke-linecap:square;stroke-width:0.8;"/>
     </g>
     <g id="line2d_86">
      <g>
       <use style="fill:#555555;stroke:#555555;stroke-width:0.8;" x="417.894426" xlink:href="#mbb55b49028" y="404.2"/>
      </g>
     </g>
     <g id="text_24">
      <!-- 20 -->
      <g style="fill:#555555;" transform="translate(411.531926 418.798437)scale(0.1 -0.1)">
       <use xlink:href="#DejaVuSans-50"/>
       <use x="63.623047" xlink:href="#DejaVuSans-48"/>
      </g>
     </g>
    </g>
    <g id="xtick_17">
     <g id="line2d_87">
      <path clip-path="url(#paea5a479b6)" d="M 487.088149 404.2 
L 487.088149 214.65 
" style="fill:none;stroke:#ffffff;stroke-linecap:square;stroke-width:0.8;"/>
     </g>
     <g id="line2d_88">
      <g>
       <use style="fill:#555555;stroke:#555555;stroke-width:0.8;" x="487.088149" xlink:href="#mbb55b49028" y="404.2"/>
      </g>
     </g>
     <g id="text_25">
      <!-- 30 -->
      <g style="fill:#555555;" transform="translate(480.725649 418.798437)scale(0.1 -0.1)">
       <use xlink:href="#DejaVuSans-51"/>
       <use x="63.623047" xlink:href="#DejaVuSans-48"/>
      </g>
     </g>
    </g>
    <g id="xtick_18">
     <g id="line2d_89">
      <path clip-path="url(#paea5a479b6)" d="M 556.281872 404.2 
L 556.281872 214.65 
" style="fill:none;stroke:#ffffff;stroke-linecap:square;stroke-width:0.8;"/>
     </g>
     <g id="line2d_90">
      <g>
       <use style="fill:#555555;stroke:#555555;stroke-width:0.8;" x="556.281872" xlink:href="#mbb55b49028" y="404.2"/>
      </g>
     </g>
     <g id="text_26">
      <!-- 40 -->
      <g style="fill:#555555;" transform="translate(549.919372 418.798437)scale(0.1 -0.1)">
       <use xlink:href="#DejaVuSans-52"/>
       <use x="63.623047" xlink:href="#DejaVuSans-48"/>
      </g>
     </g>
    </g>
    <g id="xtick_19">
     <g id="line2d_91">
      <path clip-path="url(#paea5a479b6)" d="M 625.475595 404.2 
L 625.475595 214.65 
" style="fill:none;stroke:#ffffff;stroke-linecap:square;stroke-width:0.8;"/>
     </g>
     <g id="line2d_92">
      <g>
       <use style="fill:#555555;stroke:#555555;stroke-width:0.8;" x="625.475595" xlink:href="#mbb55b49028" y="404.2"/>
      </g>
     </g>
     <g id="text_27">
      <!-- 50 -->
      <g style="fill:#555555;" transform="translate(619.113095 418.798437)scale(0.1 -0.1)">
       <use xlink:href="#DejaVuSans-53"/>
       <use x="63.623047" xlink:href="#DejaVuSans-48"/>
      </g>
     </g>
    </g>
    <g id="xtick_20">
     <g id="line2d_93">
      <path clip-path="url(#paea5a479b6)" d="M 694.669318 404.2 
L 694.669318 214.65 
" style="fill:none;stroke:#ffffff;stroke-linecap:square;stroke-width:0.8;"/>
     </g>
     <g id="line2d_94">
      <g>
       <use style="fill:#555555;stroke:#555555;stroke-width:0.8;" x="694.669318" xlink:href="#mbb55b49028" y="404.2"/>
      </g>
     </g>
     <g id="text_28">
      <!-- 60 -->
      <g style="fill:#555555;" transform="translate(688.306818 418.798437)scale(0.1 -0.1)">
       <use xlink:href="#DejaVuSans-54"/>
       <use x="63.623047" xlink:href="#DejaVuSans-48"/>
      </g>
     </g>
    </g>
   </g>
   <g id="matplotlib.axis_8">
    <g id="ytick_19">
     <g id="line2d_95">
      <path clip-path="url(#paea5a479b6)" d="M 389.525 383.291108 
L 709.2 383.291108 
" style="fill:none;stroke:#ffffff;stroke-linecap:square;stroke-width:0.8;"/>
     </g>
     <g id="line2d_96">
      <g>
       <use style="fill:#555555;stroke:#555555;stroke-width:0.8;" x="389.525" xlink:href="#m1649e55265" y="383.291108"/>
      </g>
     </g>
    </g>
    <g id="ytick_20">
     <g id="line2d_97">
      <path clip-path="url(#paea5a479b6)" d="M 389.525 352.810117 
L 709.2 352.810117 
" style="fill:none;stroke:#ffffff;stroke-linecap:square;stroke-width:0.8;"/>
     </g>
     <g id="line2d_98">
      <g>
       <use style="fill:#555555;stroke:#555555;stroke-width:0.8;" x="389.525" xlink:href="#m1649e55265" y="352.810117"/>
      </g>
     </g>
    </g>
    <g id="ytick_21">
     <g id="line2d_99">
      <path clip-path="url(#paea5a479b6)" d="M 389.525 322.329127 
L 709.2 322.329127 
" style="fill:none;stroke:#ffffff;stroke-linecap:square;stroke-width:0.8;"/>
     </g>
     <g id="line2d_100">
      <g>
       <use style="fill:#555555;stroke:#555555;stroke-width:0.8;" x="389.525" xlink:href="#m1649e55265" y="322.329127"/>
      </g>
     </g>
    </g>
    <g id="ytick_22">
     <g id="line2d_101">
      <path clip-path="url(#paea5a479b6)" d="M 389.525 291.848137 
L 709.2 291.848137 
" style="fill:none;stroke:#ffffff;stroke-linecap:square;stroke-width:0.8;"/>
     </g>
     <g id="line2d_102">
      <g>
       <use style="fill:#555555;stroke:#555555;stroke-width:0.8;" x="389.525" xlink:href="#m1649e55265" y="291.848137"/>
      </g>
     </g>
    </g>
    <g id="ytick_23">
     <g id="line2d_103">
      <path clip-path="url(#paea5a479b6)" d="M 389.525 261.367147 
L 709.2 261.367147 
" style="fill:none;stroke:#ffffff;stroke-linecap:square;stroke-width:0.8;"/>
     </g>
     <g id="line2d_104">
      <g>
       <use style="fill:#555555;stroke:#555555;stroke-width:0.8;" x="389.525" xlink:href="#m1649e55265" y="261.367147"/>
      </g>
     </g>
    </g>
    <g id="ytick_24">
     <g id="line2d_105">
      <path clip-path="url(#paea5a479b6)" d="M 389.525 230.886157 
L 709.2 230.886157 
" style="fill:none;stroke:#ffffff;stroke-linecap:square;stroke-width:0.8;"/>
     </g>
     <g id="line2d_106">
      <g>
       <use style="fill:#555555;stroke:#555555;stroke-width:0.8;" x="389.525" xlink:href="#m1649e55265" y="230.886157"/>
      </g>
     </g>
    </g>
   </g>
   <g id="line2d_107">
    <path clip-path="url(#paea5a479b6)" d="M 404.055682 393.672933 
L 410.975054 390.911355 
L 417.894426 392.026959 
L 424.813799 380.157662 
L 431.733171 379.060346 
L 438.652543 372.403298 
L 445.571916 367.563679 
L 452.491288 362.540411 
L 459.41066 355.614368 
L 466.330032 347.873721 
L 473.249405 341.747042 
L 480.168777 339.636233 
L 487.088149 331.398746 
L 494.007522 326.456253 
L 500.926894 323.331952 
L 507.846266 319.866263 
L 514.765639 313.276273 
L 521.685011 310.033096 
L 528.604383 304.040533 
L 535.523755 301.085401 
L 542.443128 298.874005 
L 549.3625 295.152276 
L 556.281872 294.896236 
L 563.201245 290.211308 
L 570.120617 290.211308 
L 577.039989 291.848137 
L 583.959361 280.338515 
L 590.878734 291.042677 
L 597.798106 274.560081 
L 604.717478 283.863642 
L 611.636851 290.211308 
L 618.556223 264.503641 
L 625.475595 268.987394 
L 632.394968 280.777441 
L 639.31434 264.415246 
L 646.233712 253.073269 
L 653.153084 280.91613 
L 660.072457 265.500369 
L 666.991829 249.100072 
L 673.911201 279.00802 
L 680.830574 251.386147 
L 687.749946 239.268429 
L 694.669318 265.500369 
" style="fill:none;stroke:#e24a33;stroke-linecap:square;stroke-width:1.5;"/>
   </g>
   <g id="line2d_108">
    <path clip-path="url(#paea5a479b6)" d="M 404.055682 382.00481 
L 410.975054 390.911355 
L 417.894426 390.701036 
L 424.813799 379.298098 
L 431.733171 370.967643 
L 438.652543 370.281821 
L 445.571916 359.15626 
L 452.491288 354.672506 
L 459.41066 343.900524 
L 466.330032 338.849824 
L 473.249405 331.296635 
L 480.168777 326.663524 
L 487.088149 319.860167 
L 494.007522 314.922247 
L 500.926894 311.628776 
L 507.846266 314.09164 
L 514.765639 303.391288 
L 521.685011 295.775613 
L 528.604383 288.640013 
L 535.523755 287.424583 
L 542.443128 285.270339 
L 549.3625 282.606301 
L 556.281872 277.182971 
L 563.201245 273.178531 
L 570.120617 284.227889 
L 577.039989 290.211308 
L 583.959361 258.319048 
L 590.878734 298.448795 
L 597.798106 270.105285 
L 604.717478 249.025394 
L 611.636851 282.271772 
L 618.556223 245.736495 
L 625.475595 261.367147 
L 632.394968 241.731293 
L 639.31434 258.900473 
L 646.233712 253.746899 
L 653.153084 286.606169 
L 660.072457 266.231913 
L 666.991829 224.789959 
L 673.911201 233.934256 
L 680.830574 226.954109 
L 687.749946 223.265909 
L 694.669318 253.746899 
" style="fill:none;stroke:#348abd;stroke-linecap:square;stroke-width:1.5;"/>
   </g>
   <g id="line2d_109">
    <path clip-path="url(#paea5a479b6)" d="M 404.055682 395.584091 
L 410.975054 390.051791 
L 417.894426 389.978637 
L 424.813799 380.822147 
L 431.733171 378.061332 
L 438.652543 374.415043 
L 445.571916 367.721418 
L 452.491288 362.5587 
L 459.41066 357.710699 
L 466.330032 347.873721 
L 473.249405 342.592889 
L 480.168777 339.703292 
L 487.088149 333.05996 
L 494.007522 326.977478 
L 500.926894 326.22917 
L 507.846266 319.866263 
L 514.765639 313.276273 
L 521.685011 308.804712 
L 528.604383 304.040533 
L 535.523755 298.987547 
L 542.443128 294.896236 
L 549.3625 297.020761 
L 556.281872 291.858805 
L 563.201245 286.228966 
L 570.120617 288.921962 
L 577.039989 291.848137 
L 583.959361 282.70384 
L 590.878734 291.848137 
L 597.798106 270.105285 
L 604.717478 281.689585 
L 611.636851 281.975344 
L 618.556223 267.463345 
L 625.475595 275.382306 
L 632.394968 271.223175 
L 639.31434 261.367147 
L 646.233712 255.612336 
L 653.153084 282.197856 
L 660.072457 261.367147 
L 666.991829 246.126652 
L 673.911201 297.010855 
L 680.830574 249.025394 
L 687.749946 267.647755 
L 694.669318 280.253168 
" style="fill:none;stroke:#988ed5;stroke-linecap:square;stroke-width:1.5;"/>
   </g>
   <g id="patch_21">
    <path d="M 389.525 404.2 
L 389.525 214.65 
" style="fill:none;stroke:#ffffff;stroke-linecap:square;stroke-linejoin:miter;"/>
   </g>
   <g id="patch_22">
    <path d="M 709.2 404.2 
L 709.2 214.65 
" style="fill:none;stroke:#ffffff;stroke-linecap:square;stroke-linejoin:miter;"/>
   </g>
   <g id="patch_23">
    <path d="M 389.525 404.2 
L 709.2 404.2 
" style="fill:none;stroke:#ffffff;stroke-linecap:square;stroke-linejoin:miter;"/>
   </g>
   <g id="patch_24">
    <path d="M 389.525 214.65 
L 709.2 214.65 
" style="fill:none;stroke:#ffffff;stroke-linecap:square;stroke-linejoin:miter;"/>
   </g>
   <g id="legend_4">
    <g id="patch_25">
     <path d="M 393.725 245.870625 
L 443.002813 245.870625 
Q 444.202812 245.870625 444.202812 244.670625 
L 444.202812 218.85 
Q 444.202812 217.65 443.002813 217.65 
L 393.725 217.65 
Q 392.525 217.65 392.525 218.85 
L 392.525 244.670625 
Q 392.525 245.870625 393.725 245.870625 
z
" style="fill:#e5e5e5;opacity:0.8;stroke:#cccccc;stroke-linejoin:miter;stroke-width:0.5;"/>
    </g>
    <g id="line2d_110">
     <path d="M 394.925 222.509062 
L 406.925 222.509062 
" style="fill:none;stroke:#e24a33;stroke-linecap:square;stroke-width:1.5;"/>
    </g>
    <g id="line2d_111"/>
    <g id="text_29">
     <!-- All Devs -->
     <g transform="translate(411.725 224.609062)scale(0.06 -0.06)">
      <use xlink:href="#DejaVuSans-65"/>
      <use x="68.408203" xlink:href="#DejaVuSans-108"/>
      <use x="96.191406" xlink:href="#DejaVuSans-108"/>
      <use x="123.974609" xlink:href="#DejaVuSans-32"/>
      <use x="155.761719" xlink:href="#DejaVuSans-68"/>
      <use x="232.763672" xlink:href="#DejaVuSans-101"/>
      <use x="294.287109" xlink:href="#DejaVuSans-118"/>
      <use x="353.466797" xlink:href="#DejaVuSans-115"/>
     </g>
    </g>
    <g id="line2d_112">
     <path d="M 394.925 231.315937 
L 406.925 231.315937 
" style="fill:none;stroke:#348abd;stroke-linecap:square;stroke-width:1.5;"/>
    </g>
    <g id="line2d_113"/>
    <g id="text_30">
     <!-- Python -->
     <g transform="translate(411.725 233.415937)scale(0.06 -0.06)">
      <use xlink:href="#DejaVuSans-80"/>
      <use x="60.302734" xlink:href="#DejaVuSans-121"/>
      <use x="119.482422" xlink:href="#DejaVuSans-116"/>
      <use x="158.691406" xlink:href="#DejaVuSans-104"/>
      <use x="222.070312" xlink:href="#DejaVuSans-111"/>
      <use x="283.251953" xlink:href="#DejaVuSans-110"/>
     </g>
    </g>
    <g id="line2d_114">
     <path d="M 394.925 240.122813 
L 406.925 240.122813 
" style="fill:none;stroke:#988ed5;stroke-linecap:square;stroke-width:1.5;"/>
    </g>
    <g id="line2d_115"/>
    <g id="text_31">
     <!-- JavaScript -->
     <g transform="translate(411.725 242.222813)scale(0.06 -0.06)">
      <use xlink:href="#DejaVuSans-74"/>
      <use x="29.492188" xlink:href="#DejaVuSans-97"/>
      <use x="90.771484" xlink:href="#DejaVuSans-118"/>
      <use x="149.951172" xlink:href="#DejaVuSans-97"/>
      <use x="211.230469" xlink:href="#DejaVuSans-83"/>
      <use x="274.707031" xlink:href="#DejaVuSans-99"/>
      <use x="329.6875" xlink:href="#DejaVuSans-114"/>
      <use x="370.800781" xlink:href="#DejaVuSans-105"/>
      <use x="398.583984" xlink:href="#DejaVuSans-112"/>
      <use x="462.060547" xlink:href="#DejaVuSans-116"/>
     </g>
    </g>
   </g>
  </g>
  <g id="text_32">
   <!-- Median Salary(USD) -->
   <g transform="translate(1.918125 276.080625)rotate(-90)scale(0.12 -0.12)">
    <defs>
     <path d="M 9.8125 72.90625 
L 24.515625 72.90625 
L 43.109375 23.296875 
L 61.8125 72.90625 
L 76.515625 72.90625 
L 76.515625 0 
L 66.890625 0 
L 66.890625 64.015625 
L 48.09375 14.015625 
L 38.1875 14.015625 
L 19.390625 64.015625 
L 19.390625 0 
L 9.8125 0 
z
" id="DejaVuSans-77"/>
     <path d="M 45.40625 46.390625 
L 45.40625 75.984375 
L 54.390625 75.984375 
L 54.390625 0 
L 45.40625 0 
L 45.40625 8.203125 
Q 42.578125 3.328125 38.25 0.953125 
Q 33.9375 -1.421875 27.875 -1.421875 
Q 17.96875 -1.421875 11.734375 6.484375 
Q 5.515625 14.40625 5.515625 27.296875 
Q 5.515625 40.1875 11.734375 48.09375 
Q 17.96875 56 27.875 56 
Q 33.9375 56 38.25 53.625 
Q 42.578125 51.265625 45.40625 46.390625 
z
M 14.796875 27.296875 
Q 14.796875 17.390625 18.875 11.75 
Q 22.953125 6.109375 30.078125 6.109375 
Q 37.203125 6.109375 41.296875 11.75 
Q 45.40625 17.390625 45.40625 27.296875 
Q 45.40625 37.203125 41.296875 42.84375 
Q 37.203125 48.484375 30.078125 48.484375 
Q 22.953125 48.484375 18.875 42.84375 
Q 14.796875 37.203125 14.796875 27.296875 
z
" id="DejaVuSans-100"/>
     <path d="M 31 75.875 
Q 24.46875 64.65625 21.28125 53.65625 
Q 18.109375 42.671875 18.109375 31.390625 
Q 18.109375 20.125 21.3125 9.0625 
Q 24.515625 -2 31 -13.1875 
L 23.1875 -13.1875 
Q 15.875 -1.703125 12.234375 9.375 
Q 8.59375 20.453125 8.59375 31.390625 
Q 8.59375 42.28125 12.203125 53.3125 
Q 15.828125 64.359375 23.1875 75.875 
z
" id="DejaVuSans-40"/>
     <path d="M 8.6875 72.90625 
L 18.609375 72.90625 
L 18.609375 28.609375 
Q 18.609375 16.890625 22.84375 11.734375 
Q 27.09375 6.59375 36.625 6.59375 
Q 46.09375 6.59375 50.34375 11.734375 
Q 54.59375 16.890625 54.59375 28.609375 
L 54.59375 72.90625 
L 64.5 72.90625 
L 64.5 27.390625 
Q 64.5 13.140625 57.4375 5.859375 
Q 50.390625 -1.421875 36.625 -1.421875 
Q 22.796875 -1.421875 15.734375 5.859375 
Q 8.6875 13.140625 8.6875 27.390625 
z
" id="DejaVuSans-85"/>
     <path d="M 8.015625 75.875 
L 15.828125 75.875 
Q 23.140625 64.359375 26.78125 53.3125 
Q 30.421875 42.28125 30.421875 31.390625 
Q 30.421875 20.453125 26.78125 9.375 
Q 23.140625 -1.703125 15.828125 -13.1875 
L 8.015625 -13.1875 
Q 14.5 -2 17.703125 9.0625 
Q 20.90625 20.125 20.90625 31.390625 
Q 20.90625 42.671875 17.703125 53.65625 
Q 14.5 64.65625 8.015625 75.875 
z
" id="DejaVuSans-41"/>
    </defs>
    <use xlink:href="#DejaVuSans-77"/>
    <use x="86.279297" xlink:href="#DejaVuSans-101"/>
    <use x="147.802734" xlink:href="#DejaVuSans-100"/>
    <use x="211.279297" xlink:href="#DejaVuSans-105"/>
    <use x="239.0625" xlink:href="#DejaVuSans-97"/>
    <use x="300.341797" xlink:href="#DejaVuSans-110"/>
    <use x="363.720703" xlink:href="#DejaVuSans-32"/>
    <use x="395.507812" xlink:href="#DejaVuSans-83"/>
    <use x="458.984375" xlink:href="#DejaVuSans-97"/>
    <use x="520.263672" xlink:href="#DejaVuSans-108"/>
    <use x="548.046875" xlink:href="#DejaVuSans-97"/>
    <use x="609.326172" xlink:href="#DejaVuSans-114"/>
    <use x="650.439453" xlink:href="#DejaVuSans-121"/>
    <use x="709.619141" xlink:href="#DejaVuSans-40"/>
    <use x="748.632812" xlink:href="#DejaVuSans-85"/>
    <use x="821.826172" xlink:href="#DejaVuSans-83"/>
    <use x="885.302734" xlink:href="#DejaVuSans-68"/>
    <use x="962.304688" xlink:href="#DejaVuSans-41"/>
   </g>
  </g>
  <g id="text_33">
   <!-- Ages -->
   <g transform="translate(345.269063 436.32)scale(0.12 -0.12)">
    <defs>
     <path d="M 45.40625 27.984375 
Q 45.40625 37.75 41.375 43.109375 
Q 37.359375 48.484375 30.078125 48.484375 
Q 22.859375 48.484375 18.828125 43.109375 
Q 14.796875 37.75 14.796875 27.984375 
Q 14.796875 18.265625 18.828125 12.890625 
Q 22.859375 7.515625 30.078125 7.515625 
Q 37.359375 7.515625 41.375 12.890625 
Q 45.40625 18.265625 45.40625 27.984375 
z
M 54.390625 6.78125 
Q 54.390625 -7.171875 48.1875 -13.984375 
Q 42 -20.796875 29.203125 -20.796875 
Q 24.46875 -20.796875 20.265625 -20.09375 
Q 16.0625 -19.390625 12.109375 -17.921875 
L 12.109375 -9.1875 
Q 16.0625 -11.328125 19.921875 -12.34375 
Q 23.78125 -13.375 27.78125 -13.375 
Q 36.625 -13.375 41.015625 -8.765625 
Q 45.40625 -4.15625 45.40625 5.171875 
L 45.40625 9.625 
Q 42.625 4.78125 38.28125 2.390625 
Q 33.9375 0 27.875 0 
Q 17.828125 0 11.671875 7.65625 
Q 5.515625 15.328125 5.515625 27.984375 
Q 5.515625 40.671875 11.671875 48.328125 
Q 17.828125 56 27.875 56 
Q 33.9375 56 38.28125 53.609375 
Q 42.625 51.21875 45.40625 46.390625 
L 45.40625 54.6875 
L 54.390625 54.6875 
z
" id="DejaVuSans-103"/>
    </defs>
    <use xlink:href="#DejaVuSans-65"/>
    <use x="68.408203" xlink:href="#DejaVuSans-103"/>
    <use x="131.884766" xlink:href="#DejaVuSans-101"/>
    <use x="193.408203" xlink:href="#DejaVuSans-115"/>
   </g>
  </g>
 </g>
 <defs>
  <clipPath id="p68aaa751f4">
   <rect height="189.55" width="319.675" x="55.55" y="10.8"/>
  </clipPath>
  <clipPath id="pfc5ebfce33">
   <rect height="189.55" width="319.675" x="389.525" y="10.8"/>
  </clipPath>
  <clipPath id="p27817abf1b">
   <rect height="189.55" width="319.675" x="55.55" y="214.65"/>
  </clipPath>
  <clipPath id="paea5a479b6">
   <rect height="189.55" width="319.675" x="389.525" y="214.65"/>
  </clipPath>
 </defs>
</svg>
